HIERARCHY
ROOT Hips
{
	OFFSET 0.00 0.00 0.00
	CHANNELS 6 Xposition Yposition Zposition Xrotation Yrotation Zrotation
	JOINT Spine
	{
		OFFSET 0.00000 7.17041 0.00000
		CHANNELS 3 Xrotation Yrotation Zrotation
		JOINT Head
		{
			OFFSET 0.00000 14.27615 0.00000
			CHANNELS 3 Xrotation Yrotation Zrotation
			End Site
			{
				OFFSET 0.00000 4.52755 0.00000
			}
		}
		JOINT LeftShoulder
		{
			OFFSET 0.00000 10.71824 0.00000
			CHANNELS 3 Xrotation Yrotation Zrotation
			JOINT LeftArm
			{
				OFFSET 7.05887 0.00000 0.00000
				CHANNELS 3 Xrotation Yrotation Zrotation
				JOINT LeftForeArm
				{
					OFFSET 10.95552 0.00000 0.00000
					CHANNELS 3 Yrotation Zrotation Xrotation
					JOINT LeftHand
					{
						OFFSET 8.19372 0.00000 0.00000
						CHANNELS 3 Xrotation Yrotation Zrotation
						JOINT LeftHandThumb1
						{
							OFFSET 0.00000 0.00000 0.00000
							CHANNELS 3 Xrotation Zrotation Yrotation
							End Site
							{
								OFFSET 0.00000 0.00000 3.93700
							}
						}
						End Site
						{
							OFFSET 3.93700 0.00000 0.00000
						}
					}
				}
			}
		}
		JOINT RightShoulder
		{
			OFFSET 0.00000 10.71824 0.00000
			CHANNELS 3 Xrotation Yrotation Zrotation
			JOINT RightArm
			{
				OFFSET -7.05887 0.00000 0.00000
				CHANNELS 3 Xrotation Yrotation Zrotation
				JOINT RightForeArm
				{
					OFFSET -10.95552 0.00000 0.00000
					CHANNELS 3 Yrotation Zrotation Xrotation
					JOINT RightHand
					{
						OFFSET -8.19372 0.00000 0.00000
						CHANNELS 3 Xrotation Yrotation Zrotation
						JOINT RightHandThumb1
						{
							OFFSET 0.00000 0.00000 0.00000
							CHANNELS 3 Xrotation Zrotation Yrotation
							End Site
							{
								OFFSET 0.00000 0.00000 3.93700
							}
						}
						End Site
						{
							OFFSET -3.93700 0.00000 0.00000
						}
					}
				}
			}
		}
	}
	JOINT LeftUpLeg
	{
		OFFSET 4.31835 0.00000 0.00000
		CHANNELS 3 Xrotation Yrotation Zrotation
		JOINT LeftLeg
		{
			OFFSET 0.00000 -17.32364 0.00000
			CHANNELS 3 Xrotation Yrotation Zrotation
			JOINT LeftFoot
			{
				OFFSET 0.00000 -16.27037 0.00000
				CHANNELS 3 Xrotation Yrotation Zrotation
				JOINT LeftToeBase
				{
					OFFSET 0.00000 -1.27412 4.75510
					CHANNELS 3 Xrotation Yrotation Zrotation
					End Site
					{
						OFFSET 0.00000 0.00000 2.95275
					}
				}
			}
		}
	}
	JOINT RightUpLeg
	{
		OFFSET -4.31835 0.00000 0.00000
		CHANNELS 3 Xrotation Yrotation Zrotation
		JOINT RightLeg
		{
			OFFSET 0.00000 -17.32364 0.00000
			CHANNELS 3 Xrotation Yrotation Zrotation
			JOINT RightFoot
			{
				OFFSET 0.00000 -16.27037 0.00000
				CHANNELS 3 Xrotation Yrotation Zrotation
				JOINT RightToeBase
				{
					OFFSET 0.00000 -1.27412 4.75510
					CHANNELS 3 Xrotation Yrotation Zrotation
					End Site
					{
						OFFSET 0.00000 0.00000 2.95275
					}
				}
			}
		}
	}
}
MOTION
Frames: 11
Frame Time: 0.008333
 -3.6384 35.2444 -11.2261 -4.1435 4.5438 -7.1458 5.5044 -9.0319 8.7021 3.0320 1.7261 -4.1878 19.9624 20.7418 -9.2813 -32.5963 12.7352 -60.0590 -127.5227 -0.0000 1.9832 0.5484 -2.0842 14.7451 33.1476 -0.0000 26.2537 8.1983 -6.4512 0.0629 5.3583 21.5386 72.6683 21.5606 0.0000 17.0996 -0.0185 -0.4453 -2.3750 32.8623 0.0000 -24.3270 12.7385 -1.0117 -2.8706 -8.3824 -0.0000 0.0000 -16.2775 28.1141 11.2786 19.1884 0.0000 -0.0000 -14.2534 26.1490 14.8749 82.2935 0.0000 0.0000 0.2066 -32.4136 -14.2119 -10.6368 -0.0000 0.0000
 -3.6308 35.2439 -11.2169 -4.1895 4.6136 -7.1494 5.5288 -9.0758 8.7294 3.0612 1.7078 -4.2617 19.9597 20.7376 -9.2831 -32.5594 12.6224 -60.0145 -127.5112 -0.0000 1.9405 0.5321 -2.0056 14.8612 33.1476 -0.0000 26.2537 8.2171 -6.4703 0.0127 5.4100 21.6379 72.6539 21.5153 0.0000 17.0634 -0.0180 -0.4443 -2.3161 32.8623 0.0000 -24.3270 12.7799 -0.9392 -2.8742 -8.3351 -0.0000 -0.0000 -16.2979 27.9920 11.2565 19.1815 -0.0000 0.0000 -14.3627 26.1977 14.8974 84.5977 -0.0000 0.0000 0.0865 -32.6309 -14.1305 -10.0227 0.0000 -0.0000
 -3.6241 35.2433 -11.2065 -4.2289 4.6633 -7.1586 5.5264 -9.0999 8.7562 3.1248 1.7016 -4.3272 19.9767 20.7181 -9.2809 -32.5124 12.5115 -59.9695 -127.5169 -0.0000 1.9139 0.5335 -2.0083 14.8793 33.1476 -0.0000 26.2537 8.2661 -6.4729 -0.0180 5.4670 21.7056 72.6148 21.4938 0.0000 17.0605 -0.0137 -0.3625 -2.1694 32.8623 0.0000 -24.3270 12.8215 -0.8582 -2.8765 -8.2973 0.0000 0.0000 -16.3259 27.8729 11.2892 19.2025 -0.0000 0.0000 -14.4403 26.1916 14.8342 86.8658 -0.0000 -0.0000 0.1201 -32.8783 -14.1558 -10.4628 -0.0000 0.0000
 -3.6155 35.2433 -11.2014 -4.2298 4.7155 -7.1757 5.4966 -9.1434 8.8040 3.1744 1.6969 -4.4077 20.0371 20.7166 -9.3086 -32.5010 12.4074 -59.9485 -127.5010 -0.0000 1.8350 0.5452 -2.0573 14.8468 33.1476 -0.0000 26.2537 8.2887 -6.4721 -0.0550 5.5230 21.7703 72.5642 21.4589 0.0000 17.2714 -0.0130 -0.3066 -2.4204 32.8623 0.0000 -24.3270 12.8059 -0.8375 -2.8745 -8.2441 0.0000 0.0000 -16.3674 27.8063 11.3435 19.2234 -0.0000 -0.0000 -14.5599 26.2410 14.8240 89.1375 0.0000 -0.0000 0.0267 -32.9723 -14.1413 -9.1848 0.0000 0.0000
 -3.6048 35.2432 -11.1960 -4.2394 4.7723 -7.1888 5.4747 -9.1913 8.8290 3.2279 1.7024 -4.4204 19.9355 20.8097 -9.2718 -32.3525 12.2190 -59.9861 -127.4564 -0.0000 1.7794 0.5586 -2.1170 14.7853 33.1476 -0.0000 26.2537 8.3117 -6.4683 -0.0641 5.6106 21.8862 72.4614 21.4471 0.0000 17.2608 -0.0138 -0.3431 -2.3046 32.8623 0.0000 -24.3270 12.7979 -0.8452 -2.8774 -8.1885 0.0000 -0.0000 -16.4065 27.7774 11.3870 19.2106 -0.0000 0.0000 -14.6410 26.2804 14.7380 91.3685 -0.0000 0.0000 0.0377 -33.0970 -14.0380 -9.2017 0.0000 0.0000
 -3.5982 35.2441 -11.1892 -4.2405 4.8333 -7.2171 5.4386 -9.2407 8.8768 3.2949 1.7057 -4.4644 19.9551 20.8012 -9.2803 -32.3089 12.1253 -59.9393 -127.4539 -0.0000 1.7291 0.5564 -2.1098 14.7771 33.1476 -0.0000 26.2537 8.3448 -6.4758 -0.0729 5.6712 21.9498 72.3732 21.4332 0.0000 17.2430 -0.0126 -0.3731 -1.9362 32.8623 0.0000 -24.3270 12.7914 -0.8989 -2.8531 -8.1518 -0.0000 0.0000 -16.4459 27.7755 11.4416 19.2274 0.0000 -0.0000 -14.7030 26.3194 14.6822 93.5110 0.0000 -0.0000 0.2856 -33.1407 -14.1405 -8.1242 -0.0000 -0.0000
 -3.5914 35.2460 -11.1826 -4.2352 4.9104 -7.2475 5.3985 -9.3077 8.9311 3.3604 1.7167 -4.5043 19.9780 20.7861 -9.3081 -32.2800 12.0214 -59.8591 -127.4484 -0.0000 1.6537 0.5561 -2.1064 14.7936 33.1476 -0.0000 26.2537 8.3595 -6.4852 -0.0832 5.7107 21.8955 72.3164 21.4282 0.0000 17.3453 -0.0127 -0.3954 -1.8369 32.8623 0.0000 -24.3270 12.7826 -1.0337 -2.8189 -8.1252 -0.0000 0.0000 -16.4909 27.8220 11.5347 19.2850 -0.0000 0.0000 -14.7359 26.3502 14.5875 95.5970 0.0000 -0.0000 0.8238 -32.9599 -14.0742 -7.6538 -0.0000 -0.0000
 -3.5860 35.2486 -11.1757 -4.2402 4.9858 -7.2900 5.3770 -9.3740 8.9924 3.4171 1.7045 -4.5228 19.9722 20.7761 -9.3107 -32.2176 11.9384 -59.7974 -127.4465 -0.0000 1.5763 0.5543 -2.1000 14.7911 33.1476 -0.0000 26.2537 8.3835 -6.4845 -0.0837 5.7541 21.9006 72.2318 21.4218 0.0000 17.3554 -0.0123 -0.4120 -1.7162 32.8623 0.0000 -24.3270 12.7926 -1.1666 -2.7692 -8.1156 0.0000 0.0000 -16.5154 27.8908 11.5842 19.2624 0.0000 0.0000 -14.7531 26.3829 14.4878 97.6316 0.0000 0.0000 1.4366 -32.7137 -13.9038 -8.1647 0.0000 -0.0000
 -3.5825 35.2509 -11.1703 -4.2385 5.0413 -7.3485 5.3545 -9.4142 9.0703 3.4604 1.6958 -4.5346 19.9607 20.7676 -9.2995 -32.1412 11.8668 -59.7612 -127.4431 -0.0000 1.5145 0.5580 -2.1104 14.8145 33.1476 -0.0000 26.2537 8.3687 -6.4967 -0.0979 5.8209 21.9036 72.1615 21.4146 0.0000 17.3635 -0.0122 -0.4245 -1.6530 32.8623 0.0000 -24.3270 12.7877 -1.2548 -2.7097 -8.0865 0.0000 0.0000 -16.5327 27.9525 11.6167 19.1117 -0.0000 0.0000 -14.7897 26.4132 14.4029 99.6220 -0.0000 0.0000 2.1309 -32.3924 -13.6507 -6.9838 0.0000 -0.0000
 -3.5787 35.2546 -11.1627 -4.2534 5.1208 -7.4089 5.3556 -9.4787 9.1553 3.5023 1.6872 -4.5462 19.9572 20.7633 -9.2956 -32.0776 11.8104 -59.7340 -127.4353 -0.0000 1.4725 0.5542 -2.0958 14.8150 33.1476 -0.0000 26.2537 8.3716 -6.5012 -0.0961 5.9004 21.9500 72.0512 21.4304 0.0000 17.1800 -0.0147 -0.4087 -2.0656 32.8623 0.0000 -24.3270 12.8076 -1.3409 -2.6385 -8.0726 0.0000 0.0000 -16.6104 27.9586 11.7392 19.3050 0.0000 -0.0000 -14.7560 26.4246 14.2999 101.5368 -0.0000 -0.0000 2.7123 -32.0321 -13.4245 -8.4986 0.0000 0.0000
 -3.5738 35.2585 -11.1547 -4.2719 5.1937 -7.4748 5.3614 -9.5488 9.2506 3.5421 1.6861 -4.5475 19.9781 20.7568 -9.2985 -32.0275 11.7649 -59.7155 -127.4258 -0.0000 1.3944 0.5632 -2.1315 14.8042 33.1476 -0.0000 26.2537 8.3489 -6.5079 -0.1363 6.0067 22.1051 71.9664 21.4209 0.0000 16.9924 -0.0160 -0.4309 -2.1311 32.8623 0.0000 -24.3270 12.8398 -1.4560 -2.5638 -8.0692 0.0000 -0.0000 -16.6456 28.0079 11.8141 19.2863 -0.0000 0.0000 -14.6918 26.4783 14.1666 103.3270 -0.0000 -0.0000 3.4254 -31.8240 -13.5439 -9.7084 -0.0000 0.0000
